<mxfile host="Electron" modified="2023-09-22T10:33:45.126Z" agent="Mozilla/5.0 (Windows NT 10.0; Win64; x64) AppleWebKit/537.36 (KHTML, like Gecko) draw.io/21.7.5 Chrome/114.0.5735.289 Electron/25.8.1 Safari/537.36" etag="-mhiJByghgTCS_FTSMyx" version="21.7.5" type="device">
  <diagram name="Страница — 1" id="2GaZIY0xn27ctpKgqx-A">
    <mxGraphModel dx="1005" dy="681" grid="1" gridSize="10" guides="1" tooltips="1" connect="1" arrows="1" fold="1" page="1" pageScale="1" pageWidth="827" pageHeight="1169" math="0" shadow="0">
      <root>
        <mxCell id="0" />
        <mxCell id="1" parent="0" />
        <mxCell id="_NTmYN65szDai1d6A9IO-5" value="" style="edgeStyle=orthogonalEdgeStyle;rounded=0;orthogonalLoop=1;jettySize=auto;html=1;" parent="1" source="_NTmYN65szDai1d6A9IO-3" target="_NTmYN65szDai1d6A9IO-4" edge="1">
          <mxGeometry relative="1" as="geometry" />
        </mxCell>
        <mxCell id="_NTmYN65szDai1d6A9IO-3" value="Начало" style="ellipse;whiteSpace=wrap;html=1;fillColor=#dae8fc;strokeColor=#6c8ebf;" parent="1" vertex="1">
          <mxGeometry x="354" y="40" width="120" height="40" as="geometry" />
        </mxCell>
        <mxCell id="Wf8Heb1XohA_fjcVxezP-1" value="" style="edgeStyle=orthogonalEdgeStyle;rounded=0;orthogonalLoop=1;jettySize=auto;html=1;" edge="1" parent="1" source="_NTmYN65szDai1d6A9IO-4" target="_NTmYN65szDai1d6A9IO-6">
          <mxGeometry relative="1" as="geometry" />
        </mxCell>
        <mxCell id="_NTmYN65szDai1d6A9IO-4" value="Автор отчета направляет отчет руководителю проекта для согласования с заказчиком." style="rounded=0;whiteSpace=wrap;html=1;fillColor=#d5e8d4;strokeColor=#82b366;" parent="1" vertex="1">
          <mxGeometry x="354" y="160" width="120" height="110" as="geometry" />
        </mxCell>
        <mxCell id="_NTmYN65szDai1d6A9IO-11" style="edgeStyle=orthogonalEdgeStyle;rounded=0;orthogonalLoop=1;jettySize=auto;html=1;exitX=0;exitY=0.5;exitDx=0;exitDy=0;entryX=1;entryY=0.5;entryDx=0;entryDy=0;" parent="1" source="_NTmYN65szDai1d6A9IO-6" target="_NTmYN65szDai1d6A9IO-10" edge="1">
          <mxGeometry relative="1" as="geometry" />
        </mxCell>
        <mxCell id="_NTmYN65szDai1d6A9IO-13" value="Да" style="edgeLabel;html=1;align=center;verticalAlign=middle;resizable=0;points=[];" parent="_NTmYN65szDai1d6A9IO-11" vertex="1" connectable="0">
          <mxGeometry x="0.065" y="1" relative="1" as="geometry">
            <mxPoint as="offset" />
          </mxGeometry>
        </mxCell>
        <mxCell id="_NTmYN65szDai1d6A9IO-12" style="edgeStyle=orthogonalEdgeStyle;rounded=0;orthogonalLoop=1;jettySize=auto;html=1;exitX=1;exitY=0.5;exitDx=0;exitDy=0;entryX=0.5;entryY=0;entryDx=0;entryDy=0;" parent="1" source="_NTmYN65szDai1d6A9IO-6" target="_NTmYN65szDai1d6A9IO-9" edge="1">
          <mxGeometry relative="1" as="geometry" />
        </mxCell>
        <mxCell id="_NTmYN65szDai1d6A9IO-14" value="Нет" style="edgeLabel;html=1;align=center;verticalAlign=middle;resizable=0;points=[];" parent="_NTmYN65szDai1d6A9IO-12" vertex="1" connectable="0">
          <mxGeometry x="0.261" y="4" relative="1" as="geometry">
            <mxPoint as="offset" />
          </mxGeometry>
        </mxCell>
        <mxCell id="_NTmYN65szDai1d6A9IO-6" value="Были найдены ошибки?" style="rhombus;whiteSpace=wrap;html=1;fillColor=#ffe6cc;strokeColor=#d79b00;" parent="1" vertex="1">
          <mxGeometry x="374" y="310" width="80" height="80" as="geometry" />
        </mxCell>
        <mxCell id="_NTmYN65szDai1d6A9IO-9" value="Переход отчёта к согласующим лицам" style="rounded=0;whiteSpace=wrap;html=1;fillColor=#d5e8d4;strokeColor=#82b366;" parent="1" vertex="1">
          <mxGeometry x="519" y="390" width="120" height="60" as="geometry" />
        </mxCell>
        <mxCell id="Wf8Heb1XohA_fjcVxezP-2" style="edgeStyle=orthogonalEdgeStyle;rounded=0;orthogonalLoop=1;jettySize=auto;html=1;exitX=0.5;exitY=0;exitDx=0;exitDy=0;entryX=0;entryY=0.5;entryDx=0;entryDy=0;" edge="1" parent="1" source="_NTmYN65szDai1d6A9IO-10" target="_NTmYN65szDai1d6A9IO-4">
          <mxGeometry relative="1" as="geometry" />
        </mxCell>
        <mxCell id="_NTmYN65szDai1d6A9IO-10" value="Исправление автором отчёта ошибок" style="rounded=0;whiteSpace=wrap;html=1;fillColor=#d5e8d4;strokeColor=#82b366;" parent="1" vertex="1">
          <mxGeometry x="160" y="320" width="120" height="60" as="geometry" />
        </mxCell>
        <mxCell id="_NTmYN65szDai1d6A9IO-19" value="Конец" style="ellipse;whiteSpace=wrap;html=1;fillColor=#dae8fc;strokeColor=#6c8ebf;" parent="1" vertex="1">
          <mxGeometry x="354" y="820" width="120" height="40" as="geometry" />
        </mxCell>
        <mxCell id="Wf8Heb1XohA_fjcVxezP-9" value="" style="edgeStyle=orthogonalEdgeStyle;rounded=0;orthogonalLoop=1;jettySize=auto;html=1;exitX=0.5;exitY=1;exitDx=0;exitDy=0;entryX=0.5;entryY=0;entryDx=0;entryDy=0;" edge="1" parent="1" target="Wf8Heb1XohA_fjcVxezP-10" source="_NTmYN65szDai1d6A9IO-9">
          <mxGeometry relative="1" as="geometry">
            <mxPoint x="580" y="450" as="sourcePoint" />
          </mxGeometry>
        </mxCell>
        <mxCell id="Wf8Heb1XohA_fjcVxezP-11" style="edgeStyle=orthogonalEdgeStyle;rounded=0;orthogonalLoop=1;jettySize=auto;html=1;exitX=0;exitY=0.5;exitDx=0;exitDy=0;entryX=0.5;entryY=1;entryDx=0;entryDy=0;" edge="1" parent="1" source="Wf8Heb1XohA_fjcVxezP-10" target="_NTmYN65szDai1d6A9IO-10">
          <mxGeometry relative="1" as="geometry" />
        </mxCell>
        <mxCell id="Wf8Heb1XohA_fjcVxezP-12" value="Да" style="edgeLabel;html=1;align=center;verticalAlign=middle;resizable=0;points=[];" vertex="1" connectable="0" parent="Wf8Heb1XohA_fjcVxezP-11">
          <mxGeometry x="-0.4925" relative="1" as="geometry">
            <mxPoint as="offset" />
          </mxGeometry>
        </mxCell>
        <mxCell id="Wf8Heb1XohA_fjcVxezP-16" value="Нет" style="edgeStyle=orthogonalEdgeStyle;rounded=0;orthogonalLoop=1;jettySize=auto;html=1;exitX=0.5;exitY=1;exitDx=0;exitDy=0;entryX=0.5;entryY=0;entryDx=0;entryDy=0;" edge="1" parent="1" source="Wf8Heb1XohA_fjcVxezP-10" target="Wf8Heb1XohA_fjcVxezP-15">
          <mxGeometry relative="1" as="geometry">
            <Array as="points">
              <mxPoint x="579" y="580" />
              <mxPoint x="414" y="580" />
            </Array>
          </mxGeometry>
        </mxCell>
        <mxCell id="Wf8Heb1XohA_fjcVxezP-10" value="Были найдены ошибки?" style="rhombus;whiteSpace=wrap;html=1;fillColor=#ffe6cc;strokeColor=#d79b00;" vertex="1" parent="1">
          <mxGeometry x="539" y="490" width="80" height="80" as="geometry" />
        </mxCell>
        <mxCell id="Wf8Heb1XohA_fjcVxezP-21" style="edgeStyle=orthogonalEdgeStyle;rounded=0;orthogonalLoop=1;jettySize=auto;html=1;exitX=0.5;exitY=1;exitDx=0;exitDy=0;entryX=0.5;entryY=0;entryDx=0;entryDy=0;" edge="1" parent="1" source="Wf8Heb1XohA_fjcVxezP-15" target="Wf8Heb1XohA_fjcVxezP-17">
          <mxGeometry relative="1" as="geometry" />
        </mxCell>
        <mxCell id="Wf8Heb1XohA_fjcVxezP-15" value="Переход отчёта к руководителю проекта" style="rounded=0;whiteSpace=wrap;html=1;fillColor=#d5e8d4;strokeColor=#82b366;" vertex="1" parent="1">
          <mxGeometry x="354" y="600" width="120" height="60" as="geometry" />
        </mxCell>
        <mxCell id="Wf8Heb1XohA_fjcVxezP-19" value="Да" style="edgeStyle=orthogonalEdgeStyle;rounded=0;orthogonalLoop=1;jettySize=auto;html=1;exitX=1;exitY=0.5;exitDx=0;exitDy=0;entryX=0;entryY=0.5;entryDx=0;entryDy=0;" edge="1" parent="1" source="Wf8Heb1XohA_fjcVxezP-17" target="Wf8Heb1XohA_fjcVxezP-18">
          <mxGeometry relative="1" as="geometry" />
        </mxCell>
        <mxCell id="Wf8Heb1XohA_fjcVxezP-22" style="edgeStyle=orthogonalEdgeStyle;rounded=0;orthogonalLoop=1;jettySize=auto;html=1;exitX=0.5;exitY=1;exitDx=0;exitDy=0;entryX=0.5;entryY=0;entryDx=0;entryDy=0;" edge="1" parent="1" source="Wf8Heb1XohA_fjcVxezP-17" target="_NTmYN65szDai1d6A9IO-19">
          <mxGeometry relative="1" as="geometry" />
        </mxCell>
        <mxCell id="Wf8Heb1XohA_fjcVxezP-17" value="Есть ли замечания?" style="rhombus;whiteSpace=wrap;html=1;fillColor=#ffe6cc;strokeColor=#d79b00;" vertex="1" parent="1">
          <mxGeometry x="374" y="700" width="80" height="80" as="geometry" />
        </mxCell>
        <mxCell id="Wf8Heb1XohA_fjcVxezP-20" style="edgeStyle=orthogonalEdgeStyle;rounded=0;orthogonalLoop=1;jettySize=auto;html=1;exitX=1;exitY=0.5;exitDx=0;exitDy=0;entryX=1;entryY=0.5;entryDx=0;entryDy=0;" edge="1" parent="1" source="Wf8Heb1XohA_fjcVxezP-18" target="_NTmYN65szDai1d6A9IO-4">
          <mxGeometry relative="1" as="geometry" />
        </mxCell>
        <mxCell id="Wf8Heb1XohA_fjcVxezP-18" value="Доработка автором отчёта по замечаниям руководителя" style="rounded=0;whiteSpace=wrap;html=1;fillColor=#d5e8d4;strokeColor=#82b366;" vertex="1" parent="1">
          <mxGeometry x="580" y="710" width="120" height="60" as="geometry" />
        </mxCell>
      </root>
    </mxGraphModel>
  </diagram>
</mxfile>
